<svg xmlns="http://www.w3.org/2000/svg" width="172" height="148" fill="none" viewBox="0 0 172 148"><path fill="url(#paint0_linear_155_4810)" d="m90.725 140.332.147-3.736 8.526-.291c12.912-.486 22.755-2.766 32.305-7.522 4.142-2.086 10.574-6.308 10.574-6.987 0-.146-1.365-.971-3.07-1.796-7.358-3.591-14.618-11.209-18.905-19.798-3.509-7.036-4.726-12.52-5.311-23.292-1.267-24.601-4.922-37.849-12.279-44.642-2.144-1.99-2.826-2.912-2.582-3.591.779-2.426-2.047-4.9-5.653-4.9-1.364 0-1.51-.146-1.217-1.117.194-.582.437-3.349.584-6.163.292-6.21-.098-7.23-3.216-8.103-2.778-.825-9.404-1.164-11.84-.68-1.023.195-2.193.68-2.534 1.068-.926.923-1.705 6.066-1.705 10.967v4.027H71.82c-3.217 0-4.338.485-5.312 2.426-.536 1.019-.585 1.747-.244 2.62.39 1.116.244 1.36-1.851 2.815-8.04 5.435-13.4 12.471-14.666 19.168-.252 1.275-.79 3.26-.176 5.194 1.428 4.5 5.428 4 16.401 4.802 1.117.081 3.527-.802 2.729.873-.377.792-2.662 1.598-4.483 2.378-5.72 2.447-12.719 1.447-14.319 4.447-1.132 2.124-.955 3.54-1.468 5.985-1.365 6.841-1.56 7.327-2.826 7.91-1.51.776-2.875 3.446-2.387 4.804.146.486.584 1.213.974 1.65.536.679.536 1.213-.049 3.542-1.949 7.375-2.192 16.595-.585 21.69 1.95 6.211 6.432 11.743 11.791 14.412 3.07 1.553 8.48 3.3 14.229 4.707l3.508.825v7.182h-2.241c-1.56 0-2.145.194-1.999.582.098.34.44.631.732.582.341-.048 1.56-.097 2.777-.097l2.193-.097v-7.861l1.364.243c.73.194 3.995.679 7.309 1.116l5.944.825v6.162h-1.46q-1.463 0-1.463.729c0 .533.585.727 2.192.727h2.144Zm-1.023-89.673c-1.754 3.979-5.847 5.531-9.647 3.639-6.968-3.494-4.775-13.538 2.923-13.538 1.413 0 2.972.34 3.849.825 3.118 1.892 4.385 5.726 2.875 9.074M58.999 94c-1.117 1.116-6.499-2-7.5-6-.24-.965 0-1.505 0-2.5.001-1.5 7.498-5.998 8-5 1.91 3.821 1 12-.5 13.5m-12-6A2 2 0 1 1 47 83.999 2 2 0 0 1 47 87.998"/><path fill="#000" d="M79.763 44.545c-1.072 1.164-1.023 1.698.097 2.717.731.68 1.17.728 1.9.34 1.365-.728 1.608-1.698.78-2.912-.926-1.261-1.754-1.31-2.777-.145"/><defs><linearGradient id="paint0_linear_155_4810" x1="23.02" x2="114.868" y1="102.604" y2="23.886" gradientUnits="userSpaceOnUse"><stop stop-color="#15141a"/><stop offset=".7" stop-color="#15141a"/><stop offset="1" stop-color="#33323a"/></linearGradient></defs></svg>