<svg xmlns="http://www.w3.org/2000/svg" width="172" height="148" viewBox="0 0 172 148" fill="none">
<path d="M90.7254 140.332L90.8719 136.596L99.3983 136.305C112.31 135.819 122.153 133.539 131.703 128.783C135.845 126.697 142.277 122.475 142.277 121.796C142.277 121.65 140.912 120.825 139.207 120C131.849 116.409 124.589 108.791 120.302 100.202C116.793 93.1662 115.576 87.6825 114.991 76.9102C113.724 52.3085 110.069 39.061 102.712 32.2676C100.568 30.2782 99.8861 29.3561 100.13 28.6768C100.909 26.2507 98.0827 23.7764 94.4774 23.7764C93.113 23.7764 92.9672 23.6306 93.2596 22.6602C93.4545 22.0776 93.6974 19.3113 93.8436 16.4971C94.1359 10.2863 93.7461 9.26698 90.6277 8.39355C87.8503 7.56871 81.2242 7.22964 78.7879 7.71484C77.7647 7.90894 76.5948 8.39403 76.2537 8.78223C75.328 9.70473 74.5486 14.8484 74.5486 19.749V23.7764H71.8201C68.6043 23.7764 67.4831 24.2612 66.5086 26.2021C65.9727 27.221 65.9245 27.949 66.2654 28.8223C66.6552 29.9383 66.5088 30.1812 64.4139 31.6367C56.3742 37.0715 51.0147 44.1083 49.7479 50.8047C49.4957 52.0795 48.9582 54.0644 49.5721 55.999C51 60.499 55.0003 59.9993 65.9734 60.8008C67.0895 60.882 69.4998 59.9995 68.702 61.6738C68.3245 62.4658 66.0404 63.2721 64.2186 64.0518C58.4997 66.499 51.5003 65.4992 49.9002 68.499C48.7677 70.6226 48.945 72.0393 48.4315 74.4844C47.0673 81.3254 46.8727 81.8114 45.6063 82.3936C44.0958 83.1699 42.7313 85.8396 43.2186 87.1982C43.3649 87.6835 43.8035 88.4111 44.1932 88.8477C44.729 89.5269 44.7289 90.061 44.1443 92.3896C42.1954 99.7652 41.9516 108.985 43.5594 114.08C45.5083 120.291 49.9908 125.823 55.3504 128.492C58.4201 130.045 63.8293 131.792 69.5789 133.199L73.0867 134.024V141.206H70.8455C69.2863 141.206 68.7013 141.4 68.8475 141.788C68.9449 142.128 69.2866 142.419 69.5789 142.37C69.9204 142.322 71.1385 142.273 72.3563 142.273L74.5486 142.176V134.315L75.9129 134.558C76.6438 134.752 79.9083 135.237 83.2215 135.674L89.1658 136.499V142.661H87.7049C86.7304 142.661 86.243 142.904 86.243 143.39C86.2432 143.923 86.8278 144.117 88.4354 144.117H90.5789L90.7254 140.332ZM89.702 50.6592C87.9478 54.6379 83.855 56.1903 80.0545 54.2979C73.087 50.804 75.2798 40.7598 82.9783 40.7598C84.3912 40.7598 85.9499 41.0998 86.827 41.585C89.9454 43.4774 91.2124 47.311 89.702 50.6592ZM58.9988 93.999C57.8818 95.1148 52.5 91.9987 51.4998 87.999C51.2585 87.0335 51.4988 86.4943 51.4988 85.499C51.5002 83.9989 58.9968 79.5011 59.4988 80.499C61.4094 84.3201 60.4993 92.4991 58.9988 93.999ZM46.9998 87.999C45.8954 87.999 45 87.1034 44.9998 85.999C45 84.8947 45.8954 83.999 46.9998 83.999C48.1042 83.999 48.9996 84.8947 48.9998 85.999C48.9996 87.1034 48.1043 87.999 46.9998 87.999Z" fill="url(#paint0_linear_155_4810)"/>
<path d="M79.7627 44.5448C78.6908 45.7094 78.7395 46.2431 79.8602 47.2622C80.591 47.9415 81.0296 47.99 81.7604 47.6018C83.1247 46.874 83.3684 45.9035 82.54 44.6904C81.6143 43.4287 80.7859 43.3802 79.7627 44.5448Z" fill="black"/>
<defs>
<linearGradient id="paint0_linear_155_4810" x1="23.0202" y1="102.604" x2="114.868" y2="23.8863" gradientUnits="userSpaceOnUse">
<stop stop-color="#15141A"/>
<stop offset="0.7" stop-color="#15141A"/>
<stop offset="1" stop-color="#33323A"/>
</linearGradient>
</defs>
</svg>